<svg xmlns="http://www.w3.org/2000/svg" width="256" height="256" viewBox="0 0 256 256" fill="none">
  <g fill="none" stroke="none">
    <path d="M24 176c52-28 156-28 208 0" fill="#C89B56"/>
    <g>
      <ellipse cx="78" cy="128" rx="28" ry="20" fill="#E8C183" stroke="#7A5031" stroke-width="3"/>
      <ellipse cx="58" cy="138" rx="22" ry="16" fill="#E8C183" stroke="#7A5031" stroke-width="3"/>
      <circle cx="88" cy="128" r="4" fill="#7A5031"/>
      <circle cx="66" cy="140" r="4" fill="#7A5031"/>
      <path d="M94 108c0-18 10-26 22-26 10 0 18 6 22 14 18 0 30 10 38 24 16 2 26 10 30 26 4 18-6 26-14 26-16 0-18-24-36-24-18 0-26 0-44-14-8-6-18-10-18-16z" fill="#3A2923"/>
    </g>
    <g>
      <path d="M94 100c8-18 18-20 18-20" stroke="#2E7D32" stroke-width="5" stroke-linecap="round"/>
      <path d="M108 84c0-10 12-18 12-18" stroke="#2E7D32" stroke-width="5" stroke-linecap="round"/>
    </g>
  </g>
</svg>

